<svg id="Layer_1" data-name="Layer 1" xmlns="http://www.w3.org/2000/svg" viewBox="0 0 195.42 66"><defs><style>.cls-1{fill:#f60;}.cls-2{fill:none;stroke:#000d44;stroke-width:2px;}.cls-3{fill:#c41080;}.cls-4{fill:#702462;}.cls-5{fill:#598eb2;}.cls-6{fill:#fff;}</style></defs><title>planetWRF_darkbkgd_outlines</title><g id="Shape_1_copy_3" data-name="Shape 1 copy 3"><circle class="cls-1" cx="10.5" cy="10.5" r="9.5"/><circle class="cls-2" cx="10.5" cy="10.5" r="9.5"/></g><g id="Shape_1_copy_2" data-name="Shape 1 copy 2"><circle class="cls-3" cx="10.5" cy="25.5" r="9.5"/><circle class="cls-2" cx="10.5" cy="25.5" r="9.5"/></g><g id="Shape_1_copy" data-name="Shape 1 copy"><circle class="cls-4" cx="10.5" cy="40.5" r="9.5"/><circle class="cls-2" cx="10.5" cy="40.5" r="9.5"/></g><g id="Shape_1" data-name="Shape 1"><circle class="cls-5" cx="10.5" cy="55.5" r="9.5"/><circle class="cls-2" cx="10.5" cy="55.5" r="9.5"/></g><path class="cls-6" d="M195.39,114v1.88a8,8,0,0,1,2.5-1.73,7.2,7.2,0,0,1,2.88-.58,7.42,7.42,0,0,1,5.66,2.52,9.13,9.13,0,0,1,2.33,6.45,8.91,8.91,0,0,1-2.41,6.35,7.58,7.58,0,0,1-5.7,2.55,7.09,7.09,0,0,1-2.73-.52,8.32,8.32,0,0,1-2.52-1.71v8h-4.23V114h4.23Zm4.48,3.5a4.45,4.45,0,0,0-3.34,1.38,5,5,0,0,0-1.33,3.59,5.1,5.1,0,0,0,1.33,3.66,4.42,4.42,0,0,0,3.34,1.4,4.33,4.33,0,0,0,3.29-1.42,5.08,5.08,0,0,0,1.34-3.62,5,5,0,0,0-1.31-3.59A4.35,4.35,0,0,0,199.88,117.5Z" transform="translate(-155.83 -90.61)"/><path class="cls-6" d="M211.81,107.44h4.27V131h-4.27V107.44Z" transform="translate(-155.83 -90.61)"/><path class="cls-6" d="M232.5,114h4.27v17H232.5v-1.8a8.35,8.35,0,0,1-2.5,1.71,7,7,0,0,1-2.72.52,7.57,7.57,0,0,1-5.7-2.55,8.91,8.91,0,0,1-2.4-6.35,9.13,9.13,0,0,1,2.33-6.45,7.41,7.41,0,0,1,5.65-2.52,7.18,7.18,0,0,1,2.87.58,7.85,7.85,0,0,1,2.48,1.73V114ZM228,117.5a4.31,4.31,0,0,0-3.29,1.4,5,5,0,0,0-1.31,3.59,5.09,5.09,0,0,0,1.33,3.63,4.31,4.31,0,0,0,3.28,1.42,4.39,4.39,0,0,0,3.33-1.4,5.11,5.11,0,0,0,1.32-3.66,5,5,0,0,0-1.32-3.59A4.45,4.45,0,0,0,228,117.5Z" transform="translate(-155.83 -90.61)"/><path class="cls-6" d="M241.08,114h4.27v1.74A10.22,10.22,0,0,1,248,114a6.34,6.34,0,0,1,2.41-.48,5.84,5.84,0,0,1,4.29,1.77,6.06,6.06,0,0,1,1.48,4.44V131h-4.22v-7.44a18.81,18.81,0,0,0-.27-4,2.77,2.77,0,0,0-1-1.52,2.66,2.66,0,0,0-1.68-.52,3.14,3.14,0,0,0-2.22.87,4.62,4.62,0,0,0-1.29,2.4,19.35,19.35,0,0,0-.19,3.45V131h-4.27V114Z" transform="translate(-155.83 -90.61)"/><path class="cls-6" d="M277.31,123.73h-13.7a4.56,4.56,0,0,0,1.59,2.88,5,5,0,0,0,3.29,1.07,5.69,5.69,0,0,0,4.11-1.67l3.59,1.69a8.48,8.48,0,0,1-3.22,2.82,10.07,10.07,0,0,1-4.45.91,8.8,8.8,0,0,1-6.52-2.52,8.59,8.59,0,0,1-2.52-6.32,8.88,8.88,0,0,1,2.51-6.46,8.42,8.42,0,0,1,6.29-2.57,8.74,8.74,0,0,1,6.53,2.57,9.29,9.29,0,0,1,2.52,6.79ZM273,120.38a4.28,4.28,0,0,0-1.67-2.31,4.83,4.83,0,0,0-2.89-.89,5.11,5.11,0,0,0-3.13,1,5.58,5.58,0,0,0-1.57,2.2H273Z" transform="translate(-155.83 -90.61)"/><path class="cls-6" d="M281.28,107.73h4.27V114h2.53v3.67h-2.53V131h-4.27V117.67h-2.19V114h2.19v-6.27Z" transform="translate(-155.83 -90.61)"/><path class="cls-6" d="M290.69,108H295l3.32,14.67,4.1-14.67h3.64l4.16,14.67L313.51,108h4.3l-5.18,23h-4.2l-4.23-14.86L300,131h-4.16Z" transform="translate(-155.83 -90.61)"/><path class="cls-6" d="M321.52,108h4.64a15.32,15.32,0,0,1,5.42.68,5.56,5.56,0,0,1,2.6,2.26,6.92,6.92,0,0,1,1,3.73,6.36,6.36,0,0,1-1.09,3.79,6.59,6.59,0,0,1-3.27,2.3L336.25,131h-4.78l-5.17-9.73h-0.4V131h-4.37V108Zm4.38,9h1.37a5.35,5.35,0,0,0,2.87-.55,2.06,2.06,0,0,0,.79-1.82,2.22,2.22,0,0,0-.39-1.31,2.16,2.16,0,0,0-1-.8,7.91,7.91,0,0,0-2.4-.24h-1.2V117Z" transform="translate(-155.83 -90.61)"/><path class="cls-6" d="M339.85,108h11.41v4.27h-7.06v4.17h7.06v4.2h-7.06V131h-4.34V108Z" transform="translate(-155.83 -90.61)"/></svg>